# xmcd
# 
# Track frame offsets:
#   150
#   12341
#   34218
#   52908
#   68172
#   82801
#   103114
#   120198
#   136249
#   152471
#   166834
#   186409
#   202912
#   215581
#   230138
# 
# Disc length: 3233 seconds
# 
# Revision: 0
# Processed by: cddbd v1.5.2PL0 Copyright (c) Steve Scherf et al.
# Submitted via: VOLTOCDX V1.0.24 
# 
DISCID=bf0c9f0f
DTITLE=Various Artist - ALL STAR KARAOKE COUNTRY HITS OF 2007 VOL. 1
DYEAR=2007
DGENRE=Karaoke
TTITLE0=NOBODY BUT ME - BLAKE SHELTON
TTITLE1=BELIEVE - BROOKS and DUNN
TTITLE2=BUILDING BRIDGES - BROOKS and DUNN
TTITLE3=BEFORE HE CHEATS - CARRIE UNDERWOOD
TTITLE4=FINDIN' A GOOD MAN - DANIELLE PECK
TTITLE5=COME A LITTLE CLOSER - DIERKS BENTLEY
TTITLE6=SETTLE FOR A SLOWDOWN - DIERKS BENTLEY
TTITLE7=LIFE AIN'T ALWAYS BEAUTIFUL - GARY ALLAN
TTITLE8=GIVE IT AWAY - GEORGE STRAIT
TTITLE9=SHE LET HERSELF GO - GEORGE STRAIT
TTITLE10=THE SEASHORES OF OLD MEXICO - GEORGE STRAIT
TTITLE11=I LOVED HER FIRST - HEARTLAND
TTITLE12=LOVE YOU - JACK INGRAM
TTITLE13=WHY - JASON ALDEAN
TTITLE14=SIZE MATTERS (SOMEDAY) - JOE NICHOLS
EXTD=
EXTT0=
EXTT1=
EXTT2=
EXTT3=
EXTT4=
EXTT5=
EXTT6=
EXTT7=
EXTT8=
EXTT9=
EXTT10=
EXTT11=
EXTT12=
EXTT13=
EXTT14=
PLAYORDER=
